<svg width="22" height="21" viewBox="0 0 22 21" fill="none" xmlns="http://www.w3.org/2000/svg">
<path d="M10.1194 0.474018C10.5253 -0.157946 11.449 -0.157946 11.8549 0.474019L14.9892 5.35374C15.1288 5.57118 15.345 5.72826 15.595 5.7939L21.2044 7.26684C21.9309 7.4576 22.2163 8.33607 21.7407 8.91741L18.0684 13.4062C17.9047 13.6062 17.8222 13.8604 17.837 14.1184L18.1695 19.9084C18.2126 20.6583 17.4653 21.2012 16.7655 20.9285L11.3616 18.823C11.1208 18.7292 10.8535 18.7292 10.6127 18.823L5.20884 20.9285C4.50899 21.2012 3.76171 20.6583 3.80478 19.9084L4.13733 14.1184C4.15215 13.8604 4.06957 13.6062 3.90593 13.4062L0.233579 8.91741C-0.24202 8.33607 0.0434145 7.4576 0.769882 7.26684L6.37931 5.7939C6.62927 5.72826 6.84547 5.57118 6.98514 5.35374L10.1194 0.474018Z" fill="#FFE600"/>
</svg>
